<svg width="32" height="31" viewBox="0 0 32 31" fill="none" xmlns="http://www.w3.org/2000/svg">
<path d="M16 30.75C10.6094 30.75 5.6875 27.9375 2.99219 23.25C0.296875 18.6211 0.296875 12.9375 2.99219 8.25C5.6875 3.62109 10.6094 0.75 16 0.75C21.332 0.75 26.2539 3.62109 28.9492 8.25C31.6445 12.9375 31.6445 18.6211 28.9492 23.25C26.2539 27.9375 21.332 30.75 16 30.75ZM17.1719 8.60156C17.1719 7.89844 16.6445 7.3125 15.9414 7.3125C15.2383 7.3125 14.6523 7.89844 14.6523 8.60156V9.53906C14.3008 9.65625 13.9492 9.71484 13.6562 9.89062C12.6016 10.3594 11.6055 11.1797 11.3711 12.4688C11.1367 13.8164 11.6641 15.0469 12.8359 15.75C13.6562 16.2773 14.7695 16.6289 15.6484 16.8633C15.7656 16.9219 15.9414 16.9219 16.0586 16.9805C16.7617 17.1562 17.4648 17.3906 18.0508 17.7422C18.7539 18.2109 18.4609 19.0898 17.7578 19.3828C17.2305 19.5586 16.4102 19.6758 15.4141 19.5C14.7109 19.3828 14.0664 19.1484 13.4219 18.9727C13.2461 18.9141 13.1289 18.8555 12.9531 18.7969C12.3086 18.5625 11.6055 18.9141 11.3711 19.6172C11.1367 20.2617 11.4883 20.9648 12.1328 21.1992C13.0117 21.4922 13.832 21.7266 14.6523 21.9609V22.957C14.6523 23.6602 15.2383 24.2461 15.9414 24.2461C16.6445 24.2461 17.1719 23.6602 17.1719 22.957V22.0781C17.6992 22.0195 18.2266 21.9023 18.6953 21.7266C19.75 21.2578 20.6875 20.3789 20.9219 19.0898C21.1562 17.7422 20.6289 16.4531 19.5156 15.6914C18.6367 15.1055 17.4648 14.7539 16.5273 14.4609C16.4102 14.4609 16.293 14.4023 16.1172 14.4023C15.4727 14.168 14.7695 13.9922 14.1836 13.6406C13.4805 13.1719 14.0078 12.4688 14.6523 12.2344C15.3555 11.8828 16.2344 11.8242 17.0547 12C17.4648 12.0586 17.875 12.1758 18.2852 12.293C18.3438 12.293 18.4609 12.3516 18.5195 12.3516C19.2227 12.5273 19.9258 12.1758 20.1016 11.4727C20.2773 10.8281 19.8672 10.125 19.2227 9.89062C19.1055 9.89062 18.9883 9.83203 18.8711 9.83203C18.3438 9.65625 17.7578 9.48047 17.1719 9.42188V8.60156Z" fill="#FF5630"/>
</svg>
