<svg width="30" height="31" viewBox="0 0 30 31" fill="none" xmlns="http://www.w3.org/2000/svg">
<path d="M28.125 2.625V11.2969C29.1797 11.8242 30 13.2305 30 14.8125C30 16.4531 29.1797 17.8594 28.125 18.3867V27C28.125 27.7617 27.6562 28.4648 26.9531 28.7578C26.25 29.0508 25.4297 28.875 24.9023 28.3477L22.3242 25.7695C19.5117 22.957 15.7031 21.375 11.7188 21.375H11.25V28.875C11.25 29.9297 10.3711 30.75 9.375 30.75H5.625C4.57031 30.75 3.75 29.9297 3.75 28.875V21.375C1.64062 21.375 0 19.7344 0 17.625V12C0 9.94922 1.64062 8.25 3.75 8.25H9.375H11.25H11.7188C15.7031 8.25 19.5117 6.66797 22.3242 3.85547L24.9023 1.33594C25.4297 0.808594 26.25 0.632812 26.9531 0.925781C27.6562 1.21875 28.125 1.92188 28.125 2.625ZM24.375 7.13672C20.918 10.3008 16.4062 12 11.7188 12H11.25V17.625H11.7188C16.4062 17.625 20.918 19.3828 24.375 22.5469V14.8125V7.13672Z" fill="#FF5630"/>
</svg>
