<svg width="38" height="27" viewBox="0 0 38 27" fill="none" xmlns="http://www.w3.org/2000/svg">
<path d="M19 0.625C19.4688 0.625 19.9375 0.742188 20.3477 0.917969L36.8125 6.83594C37.3398 7.01172 37.75 7.53906 37.75 8.125C37.75 8.76953 37.3398 9.29688 36.8125 9.47266L20.3477 15.3906C19.9375 15.5664 19.4688 15.625 18.9414 15.625C18.4727 15.625 18.0039 15.5664 17.5938 15.3906L8.21875 11.9922C8.74609 11.4648 9.39062 11.0547 10.0938 10.7617L19.293 7.12891C19.8203 6.95312 20.0547 6.42578 19.8203 5.89844C19.6445 5.42969 19.1172 5.19531 18.6484 5.37109L9.44922 9.00391C8.27734 9.47266 7.28125 10.1758 6.51953 11.1133C5.52344 12.4609 4.9375 14.1016 4.9375 15.8594V17.3242C5.28906 18.0859 5.52344 18.9648 5.69922 19.7852C6.05078 21.3672 6.34375 23.6523 5.81641 26.1719C5.75781 26.4062 5.64062 26.6406 5.40625 26.7578C5.17188 26.875 4.9375 26.9336 4.70312 26.875L0.953125 25.9375C0.601562 25.8789 0.367188 25.6445 0.25 25.3516C0.191406 25.0586 0.25 24.707 0.425781 24.4727C0.894531 23.7695 1.36328 23.0078 1.71484 22.2461C2.41797 20.8984 3.0625 19.1992 3.0625 17.5V15.8594C3.0625 13.9844 3.58984 12.2266 4.52734 10.7031L1.12891 9.47266C0.601562 9.29688 0.25 8.76953 0.25 8.125C0.25 7.53906 0.601562 7.01172 1.12891 6.83594L17.5938 0.917969C18.0039 0.742188 18.4727 0.625 19 0.625ZM7.75 22.6562L8.62891 14.1602L16.9492 17.1484C17.5938 17.3828 18.2969 17.5 19 17.5C19.6445 17.5 20.3477 17.3828 20.9922 17.1484L29.3125 14.1602L30.25 22.6562C30.25 24.7656 25.2109 26.875 19 26.875C12.7891 26.875 7.75 24.7656 7.75 22.6562Z" fill="#353535"/>
</svg>
