<svg width="219" height="40" viewBox="0 0 219 40" fill="none" xmlns="http://www.w3.org/2000/svg">
<path d="M37.5804 0.675933C36.3394 0.561933 35.0571 0.762514 33.9397 1.3171C33.3328 1.60387 32.7439 1.926 32.164 2.26277C29.7348 3.56413 27.3109 4.87523 24.8691 6.1531C24.0914 6.56344 23.1967 6.70516 22.328 6.55568C21.9868 6.4801 21.6559 6.36592 21.3412 6.21542C17.9149 4.572 14.4791 2.94761 11.0574 1.29535C9.6058 0.649644 7.98058 0.488069 6.42765 0.835083C4.87472 1.1821 3.47864 2.01881 2.45069 3.21858C1.50775 4.35151 0.936437 5.74066 0.812637 7.20155C0.688837 8.66244 1.01841 10.1259 1.75758 11.3976C6.13702 18.5448 10.4958 25.7046 14.8338 32.8772C15.3167 33.6814 15.816 34.4759 16.2889 35.2859C16.6648 35.9543 17.1171 36.5782 17.6365 37.1454C18.8707 38.4204 20.5409 39.1977 22.323 39.3266C23.0619 39.4104 23.8059 39.2952 24.5274 39.1388C25.82 38.8557 27.0042 38.2157 27.9419 37.2935C28.5082 36.7271 28.987 36.0814 29.363 35.3774C30.1006 34.012 30.9082 32.6845 31.6581 31.3262C31.896 30.8494 32.1576 30.3526 32.1567 29.8079C32.1692 28.9515 31.6703 28.124 30.929 27.6889C30.4809 27.4306 29.9652 27.3089 29.4471 27.3394C29.0558 27.3599 28.6754 27.4735 28.3386 27.671C28.0016 27.8683 27.7182 28.1434 27.5127 28.4724C26.6322 29.9637 25.7485 31.4539 24.9048 32.9661C24.7924 33.164 24.693 33.3712 24.5474 33.5493C24.3518 33.7948 24.1037 33.9947 23.8208 34.1347C23.5379 34.2747 23.2272 34.3515 22.9109 34.3594C22.1749 34.377 21.4182 34.0195 21.0351 33.3871C17.5104 27.6103 13.9948 21.8281 10.4881 16.0406C9.02714 13.6385 7.5659 11.2363 6.10439 8.83419C5.92435 8.53639 5.82847 8.19644 5.82669 7.84968C5.82132 7.02071 6.3207 6.20316 7.07711 5.83729C7.58498 5.59116 8.18733 5.59161 8.72077 5.7529C8.99619 5.83245 9.24656 5.97342 9.50451 6.09316C13.4327 7.97784 17.3639 9.85649 21.2982 11.7291C21.8327 12.0326 22.4339 12.2038 23.0502 12.228C23.6665 12.2522 24.2795 12.1286 24.8368 11.8679C28.4887 9.92135 32.1295 7.954 35.7827 6.01058C35.9937 5.90232 36.1961 5.77284 36.4273 5.70877C36.7335 5.62473 37.055 5.60966 37.3681 5.66466C37.6811 5.71965 37.9777 5.84332 38.2358 6.02652C38.5452 6.23801 38.7932 6.52564 38.9551 6.86089C39.1171 7.19613 39.1875 7.56733 39.1592 7.93768C39.1319 8.34026 38.9326 8.70348 38.7266 9.04284C36.967 12.0834 35.216 15.1293 33.4737 18.1804C33.2713 18.6344 32.907 18.9994 32.4498 19.2055C32.2021 19.3128 31.9345 19.3688 31.664 19.3698C31.3935 19.371 31.1256 19.3173 30.8769 19.212C29.1834 18.3622 27.4852 17.5204 25.795 16.664C25.5276 16.5341 25.2696 16.3857 24.9971 16.2663C24.4218 16.0215 23.7747 15.9966 23.1817 16.1965C22.5887 16.3965 22.0923 16.807 21.7892 17.3481C21.5065 17.8592 21.4051 18.4489 21.5014 19.0234C21.5639 19.3773 21.7073 19.7125 21.9206 20.0036C22.1341 20.2947 22.412 20.5341 22.7331 20.7034C25.3244 22.0317 27.9387 23.315 30.5353 24.6324C30.8027 24.7641 31.0576 24.9214 31.337 25.0279C32.1632 25.3645 33.0797 25.4187 33.9409 25.1822C34.8019 24.9455 35.5581 24.4317 36.0892 23.7223C36.2554 23.496 36.4032 23.257 36.5313 23.0077C37.4185 21.4537 38.3059 19.9001 39.1938 18.3471C40.3993 16.2516 41.5869 14.1455 42.8116 12.0608C43.211 11.44 43.5521 10.7844 43.8305 10.1023C44.2421 8.88845 44.359 7.56277 44.075 6.30826C43.9158 5.60868 43.651 4.93668 43.2895 4.31471C43.004 3.80428 42.6588 3.32877 42.2607 2.898C41.1692 1.73486 39.7075 0.9749 38.1179 0.744191C37.9392 0.718772 37.7605 0.692707 37.5804 0.675933Z" fill="#FF5630"/>
<path d="M52.0751 30.6452H66.7482V26.1742H57.3618V22.3419H65.6693V17.8H57.3618V13.9677H66.3526V9.35484H52.0751V30.6452ZM69.3017 30.6452H76.818C83.7231 30.6452 88.1106 25.6419 88.1106 19.9645C88.1106 13.9677 83.1836 9.35484 76.818 9.35484H69.3017V30.6452ZM74.5883 25.8903V14.0742H76.7102C80.4143 14.0742 82.6801 16.6645 82.6801 19.9645C82.6801 23.5484 80.0907 25.8903 76.7102 25.8903H74.5883ZM91.7068 23.4774C91.7068 28.3742 95.2313 31.3548 100.158 31.3548C104.905 31.3548 108.718 28.5161 108.718 23.4774V9.35484H103.431V22.6968C103.431 25.5355 102.172 26.529 100.158 26.529C98.3241 26.529 96.9575 25.5355 96.9575 22.6968V9.35484H91.7068V23.4774ZM112.386 20C112.386 26.3516 117.241 31.3548 124.074 31.3548C128.066 31.3548 131.051 29.6871 133.209 27.4516L129.684 24.0452C128.174 25.5 126.232 26.4226 124.074 26.4226C120.226 26.4226 117.744 23.5839 117.744 20C117.744 16.4161 120.226 13.5774 124.074 13.5774C126.232 13.5774 128.174 14.5 129.684 15.9548L133.317 12.5484C131.016 10.171 128.174 8.64516 124.074 8.64516C117.241 8.64516 112.386 13.6484 112.386 20ZM133.999 30.6452H139.682L140.725 28.4452H149.249L150.328 30.6452H156.009L145.437 8.64516H144.501L133.999 30.6452ZM142.38 24.7194L144.896 19.3258H144.968L147.45 24.7194H142.38ZM162.878 31.3548H163.526L173.056 9.35484H167.554L163.203 19.6097L158.85 9.35484H153.348L162.878 31.3548ZM175.142 30.6452H180.428V9.35484H175.142V30.6452ZM187.694 30.6452H193.016V13.9677H197.907V9.35484H182.875V13.9677H187.694V30.6452ZM195.965 30.6452H201.647L202.691 28.4452H211.213L212.293 30.6452H217.975L207.401 8.64516H206.466L195.965 30.6452ZM204.344 24.7194L206.862 19.3258H206.934L209.416 24.7194H204.344Z" fill="#FF5630"/>
</svg>
